<?xml version="1.0" encoding="utf-8"?>
<!-- Generator: Adobe Illustrator 24.1.2, SVG Export Plug-In . SVG Version: 6.00 Build 0)  -->
<svg version="1.1" id="Layer_1" xmlns="http://www.w3.org/2000/svg" xmlns:xlink="http://www.w3.org/1999/xlink" x="0px" y="0px"
	 viewBox="0 0 20.1 17" style="enable-background:new 0 0 20.1 17;" xml:space="preserve">
<style type="text/css">
	.st0{fill:#FFFFFF;}
</style>
<g transform="translate(0.575 0.5)">
	<path class="st0" d="M7.7,1.9L7,1.2c-0.2-0.3-0.7-0.3-1-0.1c0,0,0,0-0.1,0.1L0.2,7.5c-0.3,0.3-0.3,0.8,0,1.1L6,14.8
		c0.2,0.3,0.7,0.3,1,0.1c0,0,0,0,0.1-0.1l0.7-0.7C8,13.7,8,13.3,7.7,13L4.1,9.3h11.8c0.4,0,0.7-0.4,0.7-0.8c0,0,0,0,0,0v-1
		c0-0.4-0.3-0.8-0.7-0.8c0,0,0,0,0,0H4.1L7.7,3C8,2.7,8,2.3,7.7,1.9z"/>
</g>
</svg>
