<?xml version="1.0" encoding="utf-8"?>
<!-- Generator: Adobe Illustrator 24.1.2, SVG Export Plug-In . SVG Version: 6.00 Build 0)  -->
<svg version="1.1" id="Layer_1" xmlns="http://www.w3.org/2000/svg" xmlns:xlink="http://www.w3.org/1999/xlink" x="0px" y="0px"
	 viewBox="0 0 20.6 17.5" style="enable-background:new 0 0 20.6 17.5;" xml:space="preserve">
<style type="text/css">
	.st0{fill:#FFFFFF;}
</style>
<g transform="translate(0.837 0.75)">
	<path class="st0" d="M8.8,1.1L8,0.3C7.7-0.1,7.2-0.1,6.9,0.2c0,0,0,0-0.1,0.1L0.2,7.4c-0.3,0.4-0.3,0.9,0,1.2l6.6,7.1
		C7.1,16,7.6,16,7.9,15.8c0,0,0,0,0.1-0.1l0.8-0.8c0.3-0.4,0.3-0.9,0-1.3L4.7,9.5h13.5c0.5,0,0.8-0.4,0.8-0.9l0,0V7.4
		c0-0.5-0.3-0.9-0.8-0.9l0,0H4.7l4.1-4.2C9.1,2,9.1,1.4,8.8,1.1z"/>
</g>
</svg>
