<svg xmlns="http://www.w3.org/2000/svg" width="13.533" height="13.533" viewBox="0 0 13.533 13.533"><defs><style>.a{fill:#50be87;}</style></defs><g transform="translate(0 0)"><path class="a" d="M6.766,0a6.766,6.766,0,1,0,6.766,6.766A6.774,6.774,0,0,0,6.766,0Zm0,12.442a5.676,5.676,0,1,1,5.676-5.676A5.682,5.682,0,0,1,6.766,12.442Z" transform="translate(0 0)"/><path class="a" d="M20.548,18.478l-3.256,3.256L16.1,20.542a.562.562,0,1,0-.795.795l1.589,1.589a.561.561,0,0,0,.795,0l3.653-3.653a.562.562,0,1,0-.795-.795Z" transform="translate(-11.558 -13.935)"/></g></svg>