<svg xmlns="http://www.w3.org/2000/svg" width="13.533" height="13.533" viewBox="0 0 13.533 13.533"><defs><style>.a{fill:red;}</style></defs><path class="a" d="M6.766,0a6.766,6.766,0,1,0,6.766,6.766A6.774,6.774,0,0,0,6.766,0Zm0,12.373a5.606,5.606,0,1,1,5.606-5.606A5.613,5.613,0,0,1,6.766,12.373Z"/><path class="a" d="M56.344,51.387a.549.549,0,0,0-.777,0l-1.7,1.7-1.7-1.7a.549.549,0,0,0-.777.777l1.7,1.7-1.7,1.7a.549.549,0,1,0,.777.777l1.7-1.7,1.7,1.7a.549.549,0,1,0,.777-.777l-1.7-1.7,1.7-1.7A.549.549,0,0,0,56.344,51.387Z" transform="translate(-47.097 -47.101)"/></svg>