<svg xmlns="http://www.w3.org/2000/svg" viewBox="0 0 30 30">
  <defs>
    <style>
      .cls-1 {
        fill: #fff;
      }
    </style>
  </defs>
  <g id="twitter-circular-button" transform="translate(0)">
    <g id="Group_12" data-name="Group 12">
      <path id="Path_8" data-name="Path 8" class="cls-1" d="M155.53,168.76c0-.153,0-.3-.01-.454a6.746,6.746,0,0,0,1.642-1.792,6.118,6.118,0,0,1-1.891.523,3.392,3.392,0,0,0,1.447-1.915,6.367,6.367,0,0,1-2.091.819,3.276,3.276,0,0,0-2.407-1.15,3.353,3.353,0,0,0-3.294,3.479,3.634,3.634,0,0,0,.088.8,9.261,9.261,0,0,1-6.793-3.8,3.744,3.744,0,0,0-.448,1.787,3.682,3.682,0,0,0,1.467,2.981,3.122,3.122,0,0,1-1.491-.464v.044a3.541,3.541,0,0,0,2.641,3.514,3.174,3.174,0,0,1-.867.118,2.833,2.833,0,0,1-.619-.069,3.357,3.357,0,0,0,3.075,2.482,6.3,6.3,0,0,1-4.094,1.51,6.837,6.837,0,0,1-.785-.049,8.822,8.822,0,0,0,5.049,1.6C152.216,178.734,155.53,173.389,155.53,168.76Z" transform="translate(-134.136 -156.761)"/>
      <path id="Path_9" data-name="Path 9" class="cls-1" d="M30,15A15,15,0,1,0,15,30,15,15,0,0,0,30,15ZM1.363,15A13.637,13.637,0,1,1,15,28.637,13.64,13.64,0,0,1,1.363,15Z"/>
    </g>
  </g>
</svg>
