<svg xmlns="http://www.w3.org/2000/svg" viewBox="0 0 30 30">
  <defs>
    <style>
      .cls-1 {
        fill: #fff;
      }

      .cls-2 {
        fill: #070000;
      }
    </style>
  </defs>
  <g id="youtube-circular-button" transform="translate(0)">
    <g id="Group_14" data-name="Group 14">
      <g id="Group_13" data-name="Group 13">
        <path id="Path_10" data-name="Path 10" class="cls-1" d="M30,15A15,15,0,1,0,15,30,15,15,0,0,0,30,15ZM1.363,15A13.637,13.637,0,1,1,15,28.637,13.64,13.64,0,0,1,1.363,15Z"/>
      </g>
    </g>
    <path id="YouTube" class="cls-1" d="M205.235,179.53v3.9a1.762,1.762,0,0,1-1.806,1.7h-7.423a1.762,1.762,0,0,1-1.806-1.7v-3.9a1.762,1.762,0,0,1,1.806-1.7h7.423A1.762,1.762,0,0,1,205.235,179.53Zm-4.072-2.818a.5.5,0,0,0,.5.321.492.492,0,0,0,.3-.094.7.7,0,0,0,.217-.276l-.015.3h.854v-3.637h-.671v2.828a.281.281,0,0,1-.563,0v-2.828h-.7v2.453c0,.311,0,.523.015.627A.894.894,0,0,0,201.164,176.712Zm-2.591-2.053a2.965,2.965,0,0,1,.089-.819.875.875,0,0,1,.893-.651,1.088,1.088,0,0,1,.508.114.828.828,0,0,1,.326.3,1.2,1.2,0,0,1,.158.38,2.96,2.96,0,0,1,.044.6v.918a5.29,5.29,0,0,1-.039.745,1.217,1.217,0,0,1-.168.444.774.774,0,0,1-.331.3,1.068,1.068,0,0,1-.464.1A1.229,1.229,0,0,1,199.1,177a.646.646,0,0,1-.316-.252,1.186,1.186,0,0,1-.163-.41,3.692,3.692,0,0,1-.049-.716l0-.962Zm.671,1.446a.342.342,0,1,0,.681,0V174.17a.342.342,0,1,0-.681,0Zm-2.369.977h.8v-2.788l.953-2.389h-.883l-.508,1.777-.513-1.782h-.874l1.012,2.394Z" transform="translate(-184.718 -163.518)"/>
    <path id="Path_11" data-name="Path 11" class="cls-2" d="M359.645,338.6l-.577,0v.4a.314.314,0,0,1-.316.311h-.113a.314.314,0,0,1-.316-.311v-.844h1.318v-.494a7.947,7.947,0,0,0-.039-.933c-.094-.656-1.012-.76-1.481-.424a.85.85,0,0,0-.321.434,2.462,2.462,0,0,0-.1.775v1.091C357.7,340.416,359.906,340.159,359.645,338.6Z" transform="translate(-340.174 -319.662)"/>
    <path id="Path_12" data-name="Path 12" class="cls-2" d="M309.994,319.331v-1.826c0-.7-.523-1.115-1.229-.548l0-1.357H308l0,4.689.632-.01.059-.291C309.49,320.723,310,320.219,309.994,319.331Z" transform="translate(-292.909 -300.149)"/>
    <path id="Path_13" data-name="Path 13" class="cls-1" d="M371.325,350.365H370.6l0-.424a.341.341,0,0,1,.341-.341h.044a.341.341,0,0,1,.341.341Z" transform="translate(-352.436 -332.466)"/>
    <path id="Path_14" data-name="Path 14" class="cls-1" d="M323.636,346.8a.312.312,0,0,0-.336.276v2.053a.342.342,0,0,0,.671,0v-2.053A.312.312,0,0,0,323.636,346.8Z" transform="translate(-307.454 -329.811)"/>
    <path id="Path_15" data-name="Path 15" class="cls-2" d="M213.33,320.223v-4.111h.923V315.5H211.8v.6h.765v4.126Z" transform="translate(-201.424 -300.054)"/>
    <path id="Path_16" data-name="Path 16" class="cls-2" d="M260.232,340.3h-.765v2.2a4.158,4.158,0,0,1,0,.533c-.064.173-.341.35-.454.02a4.992,4.992,0,0,1,0-.538l0-2.211h-.765v2.176c0,.336-.01.582,0,.7.02.2.01.434.2.568a.926.926,0,0,0,1.17-.395v.454h.617l0-3.5Z" transform="translate(-245.582 -323.634)"/>
  </g>
</svg>
