<?xml version="1.0" encoding="utf-8"?>
<!-- Generator: Adobe Illustrator 22.1.0, SVG Export Plug-In . SVG Version: 6.00 Build 0)  -->
<svg version="1.1" id="Layer_1" xmlns="http://www.w3.org/2000/svg" xmlns:xlink="http://www.w3.org/1999/xlink" x="0px" y="0px"
	 viewBox="0 0 32.2 32.2" style="enable-background:new 0 0 32.2 32.2;" xml:space="preserve">
<style type="text/css">
	.st0{fill:#FFFFFF;}
</style>
<g id="logout" transform="translate(-11.18 -56.679)">
	<g id="turn-off" transform="translate(-10.151 56.679)">
		<g id="Group_38" transform="translate(21.331)">
			<g id="Group_37" transform="translate(0)">
				<path id="Path_35" class="st0" d="M22,3.9c-0.7-0.3-1.5,0-1.8,0.7s0,1.5,0.7,1.8c0,0,0,0,0.1,0c6.1,2.7,8.9,9.8,6.2,15.9
					c-2.7,6.1-9.8,8.9-15.9,6.2C5.2,25.8,2.4,18.7,5,12.6c1.2-2.8,3.4-5,6.2-6.2c0.7-0.3,1-1.1,0.7-1.7c-0.3-0.7-1.1-1-1.7-0.7
					c0,0,0,0-0.1,0c-7.5,3.3-10.9,12-7.6,19.4S14.5,34.2,22,31s10.9-12,7.6-19.4C28.1,8.1,25.4,5.4,22,3.9L22,3.9z"/>
				<path id="Path_36" class="st0" d="M16.1,14.8c0.7,0,1.3-0.6,1.3-1.3V1.3c0-0.7-0.6-1.4-1.3-1.4s-1.4,0.6-1.4,1.3c0,0,0,0,0,0.1
					v12.1C14.8,14.2,15.4,14.8,16.1,14.8z"/>
			</g>
		</g>
	</g>
</g>
</svg>
