<?xml version="1.0" encoding="utf-8"?>
<!-- Generator: Adobe Illustrator 22.1.0, SVG Export Plug-In . SVG Version: 6.00 Build 0)  -->
<svg version="1.1" id="Layer_1" xmlns="http://www.w3.org/2000/svg" xmlns:xlink="http://www.w3.org/1999/xlink" x="0px" y="0px"
	 viewBox="0 0 30 30" style="enable-background:new 0 0 30 30;" xml:space="preserve">
<style type="text/css">
	.st0{fill:#FFFFFF;}
</style>
<path id="Union_1" class="st0" d="M0,15C0,6.7,6.7,0,15,0s15,6.7,15,15s-6.7,15-15,15C6.7,30,0,23.3,0,15C0,15,0,15,0,15z M2.3,15
	C2.3,22,8,27.7,15,27.7S27.7,22,27.7,15S22,2.3,15,2.3C8,2.3,2.3,8,2.3,15C2.3,15,2.3,15,2.3,15z M20.8,19.1l-3.1-1.5
	c-0.3-0.1-0.5-0.4-0.5-0.8v-1.1c0.1-0.1,0.2-0.2,0.2-0.3c0.4-0.6,0.7-1.2,0.9-1.9c0.5-0.2,0.7-0.7,0.7-1.2v-1.3
	c0-0.3-0.1-0.6-0.3-0.8V8.6c0-0.2,0.1-1.2-0.7-2.1c-0.7-0.8-1.7-1.1-3.2-1.1s-2.5,0.4-3.2,1.1c-0.8,0.9-0.7,1.9-0.7,2.1v1.7
	c-0.2,0.2-0.3,0.5-0.3,0.8v1.3c0,0.4,0.2,0.8,0.5,1c0.3,1.2,0.9,2,1.1,2.3v1.1c0,0.3-0.2,0.6-0.4,0.7l-2.9,1.6
	c-0.9,0.5-1.5,1.5-1.5,2.5v1c0,1.5,4.8,1.9,7.4,1.9s7.4-0.4,7.4-1.9v-1C22.4,20.6,21.8,19.6,20.8,19.1z"/>
</svg>
