<?xml version="1.0" encoding="utf-8"?>
<!-- Generator: Adobe Illustrator 22.1.0, SVG Export Plug-In . SVG Version: 6.00 Build 0)  -->
<svg version="1.1" id="play1-circular-button" xmlns="http://www.w3.org/2000/svg" xmlns:xlink="http://www.w3.org/1999/xlink"
	 x="0px" y="0px" viewBox="0 0 44 44" style="enable-background:new 0 0 44 44;" xml:space="preserve">
<style type="text/css">
	.st0{fill:#FFFFFF;}
</style>
<path id="Path_22" class="st0" d="M44,22C44,9.8,34.2,0,22,0S0,9.8,0,22s9.8,22,22,22S44,34.2,44,22z M2,22C2,11,11,2,22,2
	s20,9,20,20s-9,20-20,20C11,42,2,33,2,22z"/>
<g id="Group_18" transform="translate(15.397 10.027)">
	<g id="Layer_8_16_">
		<path id="Path_23" class="st0" d="M0.6,0.2C0.8,0.1,1,0,1.2,0c0.2,0,0.4,0.1,0.6,0.2l14.8,10.7c0.4,0.2,0.6,0.6,0.6,1.1
			c0,0.4-0.2,0.9-0.6,1.1L1.9,23.8C1.5,24,1,24,0.6,23.8C0.2,23.6,0,23.2,0,22.7V1.2C0,0.8,0.2,0.4,0.6,0.2z"/>
	</g>
</g>
</svg>
