<?xml version="1.0" encoding="utf-8"?>
<!-- Generator: Adobe Illustrator 24.1.2, SVG Export Plug-In . SVG Version: 6.00 Build 0)  -->
<svg version="1.1" id="Layer_1" xmlns="http://www.w3.org/2000/svg" xmlns:xlink="http://www.w3.org/1999/xlink" x="0px" y="0px"
	 viewBox="0 0 44 44" style="enable-background:new 0 0 44 44;" xml:space="preserve">
<style type="text/css">
	.st0{fill:#FFFFFF;}
</style>
<g id="setrbt-circular-button" transform="translate(3)">
	<g id="Group_17" transform="translate(-3)">
		<path id="Path_17" class="st0" d="M44,22C44,9.8,34.2,0,22,0S0,9.8,0,22s9.8,22,22,22S44,34.2,44,22z M2,22C2,11,11,2,22,2
			s20,9,20,20s-9,20-20,20S2,33,2,22z"/>
		<g id="Group_16" transform="translate(24.213 12.017)">
			<path id="Path_18" class="st0" d="M7.3,1.8V0.2C7.3,0.1,7.2,0,7.1,0C7,0,7,0,7,0L2.4,1.5c-0.1,0-0.2,0.1-0.2,0.2v1.6l0,0v3
				C2,6.1,1.6,6,1.3,6C1,6,0.7,6.1,0.4,6.3C0,6.5-0.1,7.1,0.1,7.5c0.1,0.1,0.2,0.2,0.3,0.3c0.6,0.4,1.3,0.4,1.8,0
				C2.5,7.6,2.7,7.3,2.7,7V3.4l4.2-1.3v2.6C6.6,4.6,6.3,4.5,6,4.5C5.6,4.5,5.3,4.6,5,4.8C4.6,5,4.5,5.6,4.8,6C4.8,6.1,4.9,6.2,5,6.3
				c0.6,0.4,1.3,0.4,1.8,0c0.3-0.2,0.4-0.5,0.4-0.8L7.3,1.8L7.3,1.8z M1.3,7.6C0.9,7.6,0.5,7.4,0.5,7s0.4-0.6,0.9-0.6S2.2,6.7,2.2,7
				S1.8,7.6,1.3,7.6L1.3,7.6z M2.7,2.9V1.9l4.2-1.3v1.1L2.7,2.9z M6,6.2c-0.5,0-0.9-0.3-0.9-0.6S5.5,5,6,5s0.9,0.3,0.9,0.6
				S6.4,6.2,6,6.2L6,6.2z"/>
		</g>
		<path id="Path_19" class="st0" d="M28.4,19.9v12H15.6V11.7h14v-1c0-1-0.8-1.8-1.8-1.8H16.1c-1,0-1.8,0.8-1.8,1.8v22.7
			c0,1,0.8,1.8,1.8,1.8h11.7c1,0,1.8-0.8,1.8-1.8V19.9H28.4z M20.1,10.2h3.7c0.1,0,0.2,0.1,0.2,0.2c0,0.1-0.1,0.2-0.2,0.2h-3.7
			c-0.1,0-0.2-0.1-0.2-0.2v0C19.9,10.3,20,10.2,20.1,10.2C20.1,10.2,20.1,10.2,20.1,10.2L20.1,10.2z M22,34.2
			c-0.5,0-0.9-0.4-0.9-0.9s0.4-0.9,0.9-0.9s0.9,0.4,0.9,0.9C22.9,33.8,22.5,34.2,22,34.2L22,34.2z"/>
	</g>
</g>
</svg>
