<?xml version="1.0" encoding="utf-8"?>
<!-- Generator: Adobe Illustrator 24.1.2, SVG Export Plug-In . SVG Version: 6.00 Build 0)  -->
<svg version="1.1" id="Layer_1" xmlns="http://www.w3.org/2000/svg" xmlns:xlink="http://www.w3.org/1999/xlink" x="0px" y="0px"
	 viewBox="0 0 22 22" style="enable-background:new 0 0 22 22;" xml:space="preserve">
<style type="text/css">
	.st0{fill:#FFFFFF;}
</style>
<path class="st0" d="M11,0C4.9,0,0,4.9,0,11s4.9,11,11,11s11-4.9,11-11S17.1,0,11,0L11,0z M18.6,6.6h-3.2c-0.3-1.4-0.9-2.7-1.5-3.9
	C15.9,3.4,17.5,4.8,18.6,6.6z M11,2.2c0.9,1.3,1.6,2.8,2.1,4.4H8.9C9.4,5,10.1,3.6,11,2.2z M2.5,13.2c-0.4-1.4-0.4-3,0-4.4h3.7
	C6.1,9.5,6.1,10.3,6.1,11s0.1,1.5,0.1,2.2H2.5z M3.4,15.4h3.2c0.3,1.4,0.9,2.7,1.5,3.9C6.1,18.6,4.5,17.2,3.4,15.4L3.4,15.4z
	 M6.6,6.6H3.4c1.1-1.8,2.8-3.2,4.8-3.9C7.5,3.9,7,5.2,6.6,6.6z M11,19.8c-0.9-1.3-1.6-2.8-2.1-4.4h4.2C12.6,17,11.9,18.4,11,19.8z
	 M13.6,13.2H8.4c-0.1-0.7-0.2-1.5-0.2-2.2s0.1-1.5,0.2-2.2h5.1c0.1,0.7,0.2,1.5,0.2,2.2S13.7,12.5,13.6,13.2z M13.8,19.3
	c0.7-1.2,1.2-2.6,1.5-3.9h3.2C17.5,17.2,15.9,18.6,13.8,19.3z M15.8,13.2c0.1-0.7,0.1-1.5,0.2-2.2c0-0.7-0.1-1.5-0.2-2.2h3.7
	c0.4,1.4,0.4,3,0,4.4C19.5,13.2,15.8,13.2,15.8,13.2z"/>
</svg>
