<?xml version="1.0" encoding="utf-8"?>
<!-- Generator: Adobe Illustrator 24.1.2, SVG Export Plug-In . SVG Version: 6.00 Build 0)  -->
<svg version="1.1" id="Layer_1" xmlns="http://www.w3.org/2000/svg" xmlns:xlink="http://www.w3.org/1999/xlink" x="0px" y="0px"
	 viewBox="0 0 22 22" style="enable-background:new 0 0 22 22;" xml:space="preserve">
<style type="text/css">
	.st0{fill:#FFFFFF;}
</style>
<path class="st0" d="M11,0C4.9,0,0,4.9,0,11s4.9,11,11,11s11-4.9,11-11S17.1,0,11,0z M12.1,18.7H9.9v-2.2h2.2L12.1,18.7z M14.4,10.2
	l-1,1c-0.9,0.8-1.4,1.9-1.3,3.1H9.9v-0.5c0-1.2,0.5-2.3,1.3-3.1l1.4-1.4c0.4-0.4,0.7-1,0.6-1.6c0-1.2-1-2.2-2.2-2.2s-2.2,1-2.2,2.2
	H6.6c0-2.4,2-4.4,4.4-4.4s4.4,2,4.4,4.4C15.4,8.6,15,9.5,14.4,10.2z"/>
</svg>
