<svg xmlns="http://www.w3.org/2000/svg" width="19.011" height="19.011" viewBox="0 0 19.011 19.011"><defs><style>.a{fill:#fff;}</style></defs><path class="a" d="M19.011,9.506a9.506,9.506,0,1,0-9.506,9.506A9.506,9.506,0,0,0,19.011,9.506Zm-18.148,0a8.642,8.642,0,1,1,8.642,8.642A8.644,8.644,0,0,1,.864,9.506Z"/><g transform="translate(7.795 5.712)"><path class="a" d="M214.291,139.452a.4.4,0,0,1,.2-.052.394.394,0,0,1,.2.052l4.679,3.4a.4.4,0,0,1,.2.339.389.389,0,0,1-.2.339l-4.677,3.4a.389.389,0,0,1-.392,0,.4.4,0,0,1-.2-.339v-6.8A.389.389,0,0,1,214.291,139.452Z" transform="translate(-214.098 -139.4)"/></g></svg>