<?xml version="1.0" encoding="utf-8"?>
<!-- Generator: Adobe Illustrator 24.1.2, SVG Export Plug-In . SVG Version: 6.00 Build 0)  -->
<svg version="1.1" id="Layer_1" xmlns="http://www.w3.org/2000/svg" xmlns:xlink="http://www.w3.org/1999/xlink" x="0px" y="0px"
	 viewBox="0 0 18 18" style="enable-background:new 0 0 18 18;" xml:space="preserve">
<path d="M0,9c0-5,4-9,9-9s9,4,9,9s-4,9-9,9C4,18,0,14,0,9C0,9,0,9,0,9z M1.4,9c0,4.2,3.4,7.6,7.6,7.6s7.6-3.4,7.6-7.6
	S13.2,1.4,9,1.4C4.8,1.4,1.4,4.8,1.4,9C1.4,9,1.4,9,1.4,9z M8.1,13.3c0-0.5,0.4-0.9,0.9-0.9c0.5,0,0.9,0.4,0.9,0.9
	c0,0.5-0.4,0.9-0.9,0.9c0,0,0,0,0,0C8.5,14.2,8.1,13.8,8.1,13.3z M8.3,11.2V9.4c0-0.4,0.3-0.7,0.7-0.7c0.8,0,1.4-0.6,1.4-1.4
	S9.8,5.9,9,5.9c-0.8,0-1.4,0.6-1.4,1.4C7.6,7.7,7.3,8,6.9,8S6.2,7.7,6.2,7.3l0,0c0-1.6,1.3-2.8,2.8-2.8c1.6,0,2.8,1.3,2.8,2.8
	c0,1.3-0.9,2.4-2.1,2.7v1.1c0,0.4-0.3,0.7-0.7,0.7S8.3,11.6,8.3,11.2L8.3,11.2z"/>
</svg>
