<svg xmlns="http://www.w3.org/2000/svg" width="18" height="18" viewBox="0 0 18 18"><defs><style>.a{fill:#fff;}</style></defs><path class="a" d="M18,9A9,9,0,1,0,2.913,15.644h0l.295.262c.033,0,.033.033.065.033a4.683,4.683,0,0,0,.491.36c.065.033.1.065.164.1a4.583,4.583,0,0,0,.524.327c.033.033.065.033.131.065.2.1.393.229.622.327a.032.032,0,0,1,.033.033,8.161,8.161,0,0,0,2.193.687h.065c.229.033.491.065.72.1h.1A2.231,2.231,0,0,0,9,18a5.3,5.3,0,0,0,.72-.033h.1c.229-.033.491-.065.72-.1H10.6a8.314,8.314,0,0,0,2.16-.687.114.114,0,0,0,.065-.033l.589-.295c.033-.033.1-.065.131-.1a4.583,4.583,0,0,0,.524-.327.714.714,0,0,0,.164-.131,3.7,3.7,0,0,0,.425-.327c.033-.033.065-.033.1-.065l.295-.262h0A9,9,0,0,0,18,9ZM.655,9a8.345,8.345,0,1,1,13.876,6.251,1.326,1.326,0,0,0-.295-.164l-2.782-1.375a.687.687,0,0,1-.393-.655v-.982a1.815,1.815,0,0,0,.2-.262,6.181,6.181,0,0,0,.851-1.669,1.187,1.187,0,0,0,.687-1.08V7.92a1.173,1.173,0,0,0-.295-.785V5.564a2.664,2.664,0,0,0-.622-1.931A3.746,3.746,0,0,0,9,2.618,3.764,3.764,0,0,0,6.087,3.665,2.765,2.765,0,0,0,5.465,5.6V7.135a1.173,1.173,0,0,0-.295.785V9.065a1.218,1.218,0,0,0,.425.916,6.07,6.07,0,0,0,1.015,2.095v.949a.72.72,0,0,1-.393.655L3.665,15.055a1.148,1.148,0,0,0-.262.164A8.475,8.475,0,0,1,.655,9Z"/></svg>