<svg xmlns="http://www.w3.org/2000/svg" xmlns:xlink="http://www.w3.org/1999/xlink" width="68" height="68" viewBox="0 0 68 68"><defs><style>.a,.b{fill:#ff7900;}.a{stroke:#707070;}.c{fill:#fff;}.d{clip-path:url(#a);}</style><clipPath id="a"><circle class="a" cx="18" cy="18" r="18"/></clipPath></defs><g transform="translate(-19 -47)"><circle class="b" cx="34" cy="34" r="34" transform="translate(19 47)"/><circle class="c" cx="33" cy="33" r="33" transform="translate(20 48)"/><g class="d" transform="translate(35 63)"><g transform="translate(4.3 -0.012)"><path class="b" d="M31.744,17.618c4.005,0,7.252-3.944,7.252-8.809S37.93,0,31.744,0s-7.253,3.944-7.253,8.809S27.738,17.618,31.744,17.618Z" transform="translate(-18.044)"/><path class="b" d="M9.817,70.525c0-.3,0-.084,0,0Z" transform="translate(-9.815 -39.457)"/><path class="b" d="M72.18,70.9c0-.081,0-.563,0,0Z" transform="translate(-44.783 -39.604)"/><path class="b" d="M37.2,54.06c-.134-8.475-1.241-10.89-9.711-12.419a5.077,5.077,0,0,1-3.971,1.519,5.078,5.078,0,0,1-3.971-1.519c-8.378,1.512-9.552,3.891-9.706,12.143-.013.674-.019.709-.021.631,0,.147,0,.418,0,.89,0,0,2.016,4.065,13.7,4.065s13.7-4.065,13.7-4.065c0-.3,0-.515,0-.659A5.456,5.456,0,0,1,37.2,54.06Z" transform="translate(-9.817 -23.348)"/></g></g></g></svg>